<svg width="767" height="77" fill="none" xmlns="http://www.w3.org/2000/svg"><mask id="a" fill="#fff"><path d="M145.225 60V16.645h13.065v33.54h17.355V60h-30.42zm33.368 0l15.99-43.355h14.43L223.573 60h-13.325l-2.405-7.605h-14.885L190.618 60h-12.025zm17.225-16.705h9.1l-4.615-14.365-4.485 14.365zm53.815 18.33c-7.194 0-12.524-1.3433-15.99-4.03-3.467-2.6867-5.2-7.0633-5.2-13.13v-27.82h13.65v27.04c0 2.7733.52 4.8317 1.56 6.175 1.04 1.3433 2.795 2.015 5.265 2.015 2.123 0 3.791-.6717 5.005-2.015 1.213-1.3433 1.82-3.4017 1.82-6.175v-27.04h12.35v27.82c0 4.03-.802 7.3233-2.405 9.88-1.604 2.5133-3.792 4.355-6.565 5.525-2.774 1.17-5.937 1.755-9.49 1.755zM276.558 60V16.645h10.53l16.315 21.32v-21.32h11.83V60h-9.1l-17.745-22.165V60h-11.83zm66.73.975c-7.064 0-12.48-1.7983-16.25-5.395-3.77-3.64-5.655-9.3817-5.655-17.225 0-7.4967 1.776-13.1733 5.33-17.03 3.596-3.8567 9.121-5.785 16.575-5.785 2.296 0 4.636.2817 7.02.845 2.426.5633 4.766 1.3433 7.02 2.34V29.84c-2.384-1.6467-4.615-2.8167-6.695-3.51-2.037-.6933-3.879-1.04-5.525-1.04-2.08 0-3.9.39-5.46 1.17-1.517.78-2.709 2.1233-3.575 4.03-.824 1.8633-1.235 4.5067-1.235 7.93 0 3.3367.433 5.9367 1.3 7.8.866 1.8633 2.101 3.1633 3.705 3.9 1.646.7367 3.618 1.105 5.915 1.105 1.343 0 3.011-.325 5.005-.975 1.993-.6933 4.181-1.8417 6.565-3.445V57.92c-1.127.6067-2.492 1.1483-4.095 1.625-1.604.4333-3.272.78-5.005 1.04-1.734.26-3.38.39-4.94.39zM364.79 60V16.645h13V33.35h12.87V16.645h13V60h-13V43.75h-12.87V60h-13zm64.81 0V16.645h10.53l16.315 21.32v-21.32h11.83V60h-9.1L441.43 37.835V60H429.6zm47.1 0V16.645h13.065V60H476.7zm41.213.975c-4.203 0-7.93-.715-11.18-2.145-3.25-1.4733-5.806-3.8567-7.67-7.15-1.863-3.3367-2.795-7.7783-2.795-13.325 0-5.4167.932-9.7933 2.795-13.13 1.864-3.38 4.42-5.8283 7.67-7.345 3.25-1.56 6.955-2.34 11.115-2.34 2.903 0 5.72.3033 8.45.91 2.73.5633 5.352 1.3433 7.865 2.34v11.57c-2.86-1.56-5.417-2.7733-7.67-3.64-2.21-.91-4.528-1.365-6.955-1.365-1.993 0-3.748.3683-5.265 1.105-1.473.6933-2.622 1.9717-3.445 3.835s-1.235 4.5283-1.235 7.995c0 3.38.433 6.0233 1.3 7.93.867 1.8633 1.994 3.185 3.38 3.965 1.43.7367 2.947 1.105 4.55 1.105.954 0 1.798-.065 2.535-.195.78-.13 1.387-.3467 1.82-.65V44.79h-5.785v-9.75h18.785v20.735c-2.817 1.6467-5.785 2.925-8.905 3.835-3.076.91-6.197 1.365-9.36 1.365zM544.62 60V16.645h13V33.35h12.87V16.645h13V60h-13V43.75h-12.87V60h-13zm55.545 0V26.395H589.31v-9.75h34.97v9.75h-11.115V60h-13zM659.059 32c-4.477 0-8.118 3.4022-8.058 7.8191 0 4.4169 3.581 7.7594 8.058 7.7594 4.536 0 8.057-3.4022 8.057-7.8191 0-4.2975-3.641-7.7594-8.057-7.7594zM108.059 32c-4.477 0-8.118 3.4022-8.058 7.8191 0 4.4169 3.581 7.7594 8.058 7.7594 4.536 0 8.057-3.4022 8.057-7.8191 0-4.2975-3.641-7.7594-8.057-7.7594zM75 2H0v75h75V2zM767 0h-75v75h75V0z"/><path d="M44.0802 18.2861v42.8202c0 .1809-.146.3269-.3269.3269h-9.4214c-.1809 0-.3268-.146-.3268-.3269V34.6698l-18.413 26.6206c-.0753.1095-.2055.1578-.3285.1356-.0222.0048-.0459.0072-.0697.0072H5.77241c-.1809 0-.32686-.146-.32686-.3269V18.2861c0-.1808.14596-.3268.32686-.3268h9.42149c.1808 0 .3268.146.3268.3268v26.3216l18.3471-26.5262c.0897-.1293.2554-.1746.3951-.115.0222-.0048.0452-.0072.069-.0072h9.4214c.1809 0 .3269.146.3269.3268zM65.0467 35.5829v9.0247c0 .181-.1461.3269-.3269.3269H46.0167c-.1808 0-.3269-.1459-.3269-.3269v-9.0247c0-.1809.1461-.3269.3269-.3269h18.7031c.1808 0 .3269.146.3269.3269zM69.802 18.5043v9.0248c0 .1809-.1461.3268-.3269.3268H45.8533c-.1809 0-.3269-.1459-.3269-.3268v-9.0248c0-.1808.146-.3269.3269-.3269h23.6218c.1808 0 .3269.1461.3269.3269zM736.08 16.2861v42.8202c0 .1809-.146.3269-.327.3269h-9.421c-.181 0-.327-.146-.327-.3269V32.6698l-18.413 26.6206c-.075.1095-.205.1578-.328.1356-.023.0048-.046.0072-.07.0072h-9.422c-.181 0-.326-.146-.326-.3269V16.2861c0-.1808.145-.3268.326-.3268h9.422c.181 0 .327.146.327.3268v26.3216l18.347-26.5262c.089-.1293.255-.1746.395-.115.022-.0048.045-.0072.069-.0072h9.421c.181 0 .327.146.327.3268zM757.047 33.5829v9.0247c0 .181-.146.3269-.327.3269h-18.703c-.181 0-.327-.1459-.327-.3269v-9.0247c0-.1809.146-.3269.327-.3269h18.703c.181 0 .327.146.327.3269zM761.802 16.5043v9.0248c0 .1809-.146.3268-.327.3268h-23.622c-.181 0-.327-.1459-.327-.3268v-9.0248c0-.1808.146-.3269.327-.3269h23.622c.181 0 .327.1461.327.3269z"/></mask><path d="M145.225 60V16.645h13.065v33.54h17.355V60h-30.42zm33.368 0l15.99-43.355h14.43L223.573 60h-13.325l-2.405-7.605h-14.885L190.618 60h-12.025zm17.225-16.705h9.1l-4.615-14.365-4.485 14.365zm53.815 18.33c-7.194 0-12.524-1.3433-15.99-4.03-3.467-2.6867-5.2-7.0633-5.2-13.13v-27.82h13.65v27.04c0 2.7733.52 4.8317 1.56 6.175 1.04 1.3433 2.795 2.015 5.265 2.015 2.123 0 3.791-.6717 5.005-2.015 1.213-1.3433 1.82-3.4017 1.82-6.175v-27.04h12.35v27.82c0 4.03-.802 7.3233-2.405 9.88-1.604 2.5133-3.792 4.355-6.565 5.525-2.774 1.17-5.937 1.755-9.49 1.755zM276.558 60V16.645h10.53l16.315 21.32v-21.32h11.83V60h-9.1l-17.745-22.165V60h-11.83zm66.73.975c-7.064 0-12.48-1.7983-16.25-5.395-3.77-3.64-5.655-9.3817-5.655-17.225 0-7.4967 1.776-13.1733 5.33-17.03 3.596-3.8567 9.121-5.785 16.575-5.785 2.296 0 4.636.2817 7.02.845 2.426.5633 4.766 1.3433 7.02 2.34V29.84c-2.384-1.6467-4.615-2.8167-6.695-3.51-2.037-.6933-3.879-1.04-5.525-1.04-2.08 0-3.9.39-5.46 1.17-1.517.78-2.709 2.1233-3.575 4.03-.824 1.8633-1.235 4.5067-1.235 7.93 0 3.3367.433 5.9367 1.3 7.8.866 1.8633 2.101 3.1633 3.705 3.9 1.646.7367 3.618 1.105 5.915 1.105 1.343 0 3.011-.325 5.005-.975 1.993-.6933 4.181-1.8417 6.565-3.445V57.92c-1.127.6067-2.492 1.1483-4.095 1.625-1.604.4333-3.272.78-5.005 1.04-1.734.26-3.38.39-4.94.39zM364.79 60V16.645h13V33.35h12.87V16.645h13V60h-13V43.75h-12.87V60h-13zm64.81 0V16.645h10.53l16.315 21.32v-21.32h11.83V60h-9.1L441.43 37.835V60H429.6zm47.1 0V16.645h13.065V60H476.7zm41.213.975c-4.203 0-7.93-.715-11.18-2.145-3.25-1.4733-5.806-3.8567-7.67-7.15-1.863-3.3367-2.795-7.7783-2.795-13.325 0-5.4167.932-9.7933 2.795-13.13 1.864-3.38 4.42-5.8283 7.67-7.345 3.25-1.56 6.955-2.34 11.115-2.34 2.903 0 5.72.3033 8.45.91 2.73.5633 5.352 1.3433 7.865 2.34v11.57c-2.86-1.56-5.417-2.7733-7.67-3.64-2.21-.91-4.528-1.365-6.955-1.365-1.993 0-3.748.3683-5.265 1.105-1.473.6933-2.622 1.9717-3.445 3.835s-1.235 4.5283-1.235 7.995c0 3.38.433 6.0233 1.3 7.93.867 1.8633 1.994 3.185 3.38 3.965 1.43.7367 2.947 1.105 4.55 1.105.954 0 1.798-.065 2.535-.195.78-.13 1.387-.3467 1.82-.65V44.79h-5.785v-9.75h18.785v20.735c-2.817 1.6467-5.785 2.925-8.905 3.835-3.076.91-6.197 1.365-9.36 1.365zM544.62 60V16.645h13V33.35h12.87V16.645h13V60h-13V43.75h-12.87V60h-13zm55.545 0V26.395H589.31v-9.75h34.97v9.75h-11.115V60h-13zM659.059 32c-4.477 0-8.118 3.4022-8.058 7.8191 0 4.4169 3.581 7.7594 8.058 7.7594 4.536 0 8.057-3.4022 8.057-7.8191 0-4.2975-3.641-7.7594-8.057-7.7594zM108.059 32c-4.477 0-8.118 3.4022-8.058 7.8191 0 4.4169 3.581 7.7594 8.058 7.7594 4.536 0 8.057-3.4022 8.057-7.8191 0-4.2975-3.641-7.7594-8.057-7.7594zM75 2H0v75h75V2zM767 0h-75v75h75V0z" stroke="#fff" stroke-width="2" mask="url(#a)"/><path d="M44.0802 18.2861v42.8202c0 .1809-.146.3269-.3269.3269h-9.4214c-.1809 0-.3268-.146-.3268-.3269V34.6698l-18.413 26.6206c-.0753.1095-.2055.1578-.3285.1356-.0222.0048-.0459.0072-.0697.0072H5.77241c-.1809 0-.32686-.146-.32686-.3269V18.2861c0-.1808.14596-.3268.32686-.3268h9.42149c.1808 0 .3268.146.3268.3268v26.3216l18.3471-26.5262c.0897-.1293.2554-.1746.3951-.115.0222-.0048.0452-.0072.069-.0072h9.4214c.1809 0 .3269.146.3269.3268zM65.0467 35.5829v9.0247c0 .181-.1461.3269-.3269.3269H46.0167c-.1808 0-.3269-.1459-.3269-.3269v-9.0247c0-.1809.1461-.3269.3269-.3269h18.7031c.1808 0 .3269.146.3269.3269zM69.802 18.5043v9.0248c0 .1809-.1461.3268-.3269.3268H45.8533c-.1809 0-.3269-.1459-.3269-.3268v-9.0248c0-.1808.146-.3269.3269-.3269h23.6218c.1808 0 .3269.1461.3269.3269zM736.08 16.2861v42.8202c0 .1809-.146.3269-.327.3269h-9.421c-.181 0-.327-.146-.327-.3269V32.6698l-18.413 26.6206c-.075.1095-.205.1578-.328.1356-.023.0048-.046.0072-.07.0072h-9.422c-.181 0-.326-.146-.326-.3269V16.2861c0-.1808.145-.3268.326-.3268h9.422c.181 0 .327.146.327.3268v26.3216l18.347-26.5262c.089-.1293.255-.1746.395-.115.022-.0048.045-.0072.069-.0072h9.421c.181 0 .327.146.327.3268zM757.047 33.5829v9.0247c0 .181-.146.3269-.327.3269h-18.703c-.181 0-.327-.1459-.327-.3269v-9.0247c0-.1809.146-.3269.327-.3269h18.703c.181 0 .327.146.327.3269zM761.802 16.5043v9.0248c0 .1809-.146.3268-.327.3268h-23.622c-.181 0-.327-.1459-.327-.3268v-9.0248c0-.1808.146-.3269.327-.3269h23.622c.181 0 .327.1461.327.3269z" stroke="#fff" stroke-width="2" mask="url(#a)"/></svg>