<svg width="712" height="65" fill="none" xmlns="http://www.w3.org/2000/svg"><path d="M36.7623 48.5902h-6.8197c-.2664 0-.5328-.2132-.5328-.5328V29.8893L16.623 48.377c-.1066.1599-.2664.2132-.4796.2132H9.32377c-.26639 0-.53278-.2132-.53278-.5328V17.1557c0-.2664.21311-.5327.53278-.5327h6.81963c.2664 0 .5328.2131.5328.5327v18.1148l12.7336-18.4344c.1066-.1599.373-.2664.5328-.2131h6.8197c.2664 0 .5328.2131.5328.5327v30.955c-.0533.2663-.2664.4795-.5328.4795zm-6.7664-.5861h6.7131V17.209h-6.9262L16.0369 37.082V17.209H9.37705v30.8484h6.81965l13.7992-19.9795v19.9262zM54.9836 36.3893H41.4508c-.2664 0-.5328-.2131-.5328-.5327v-6.5c0-.2664.2131-.5328.5328-.5328h13.5328c.2664 0 .5328.2131.5328.5328v6.5c0 .3196-.2664.5327-.5328.5327zm-13.4795-.586h13.4262v-6.3935H41.5041v6.3935zM58.5533 24.1885H41.5041c-.2664 0-.5328-.2131-.5328-.5328v-6.5c0-.2664.2131-.5328.5328-.5328h17.0492c.2664 0 .5328.2132.5328.5328v6.5c0 .2664-.2664.5328-.5328.5328zm-17.0492-.586h16.9426V17.209H41.5041v6.3935z" fill="#fff" stroke="#fff" stroke-width="5" stroke-miterlimit="10"/><path d="M64.2008 61.5902H3.35657V3.56967H64.2008V61.5902zm-60.20489-.5861H63.5615V4.20902H3.99591V61.0041z" fill="#fff" stroke="#fff" stroke-width="5.1197" stroke-miterlimit="10"/><path d="M680.316 48.5902h-6.82c-.266 0-.533-.2132-.533-.5328V29.8893L660.176 48.377c-.106.1599-.319.2132-.479.2132h-6.873c-.267 0-.533-.2132-.533-.5328V17.1557c0-.2664.213-.5327.533-.5327h6.819c.267 0 .533.2131.533.5327v18.1148l12.734-18.4344c.106-.1599.373-.2664.533-.2131h6.819c.267 0 .533.2131.533.5327v30.955c0 .2663-.213.4795-.479.4795zm-6.767-.5861h6.713V17.209h-6.873L659.59 37.082V17.209h-6.713v30.8484h6.82l13.799-19.9795.053 19.9262zM698.537 36.3893h-13.533c-.266 0-.533-.2131-.533-.5327v-6.5c0-.2664.213-.5328.533-.5328h13.533c.266 0 .533.2131.533.5328v6.5c0 .3196-.267.5327-.533.5327zm-13.48-.586h13.427v-6.3935h-13.427v6.3935zM702.107 24.1885h-17.05c-.266 0-.532-.2131-.532-.5328v-6.5c0-.2664.213-.5328.532-.5328h17.05c.266 0 .532.2132.532.5328v6.5c-.053.2664-.266.5328-.532.5328zm-17.05-.586H702V17.209h-16.943v6.3935z" fill="#fff" stroke="#fff" stroke-width="5" stroke-miterlimit="10"/><path d="M707.754 61.5902H646.91V3.56967h60.844V61.5902zm-60.205-.5861h59.566V4.20902h-59.566V61.0041z" fill="#fff" stroke="#fff" stroke-width="5.1197" stroke-miterlimit="10"/><path d="M101.869 36.9754c-.053-3.9426 3.197-6.9795 7.192-6.9795 3.943 0 7.193 3.0902 7.193 6.9262 0 3.9427-3.143 6.9795-7.193 6.9795-3.995 0-7.192-2.9836-7.192-6.9262zM138.418 9.4836h5.967v40.0656h19.713v4.8483h-25.68V9.4836zM178.217 40.2254l-4.795 14.1189h-6.18l15.664-44.91397h7.192l15.771 44.91397h-6.394l-4.901-14.1189h-16.357zm15.131-4.5287L188.82 22.75c-1.013-2.9303-1.705-5.5943-2.398-8.2049h-.16c-.692 2.6639-1.438 5.3811-2.344 8.1516l-4.475 13h13.905zM216.684 9.4836v26.5861c0 10.0696 4.582 14.3319 10.763 14.3319 6.819 0 11.242-4.4221 11.242-14.3319V9.4836h6.02v26.2131c0 13.7992-7.459 19.4467-17.475 19.4467-9.431 0-16.57-5.2745-16.57-19.1803V9.4836h6.02zM255.045 54.3975V9.4836h6.5l14.812 22.75c3.409 5.2746 6.073 10.0164 8.258 14.5984l.16-.0533c-.533-6.0205-.693-11.4549-.693-18.4344V9.4836h5.594v44.9139h-6.02l-14.599-22.8032c-3.196-5.0082-6.286-10.123-8.631-14.9714l-.213.0533c.32 5.6476.48 11.082.48 18.541v19.1803h-5.648zM332.352 52.9057c-2.184 1.0656-6.553 2.1312-12.2 2.1312-13 0-22.804-7.9918-22.804-22.75 0-14.0656 9.804-23.60247 24.082-23.60247 5.754 0 9.377 1.22541 10.976 2.02457l-1.439 4.7418c-2.237-1.0656-5.487-1.8647-9.324-1.8647-10.815 0-18.008 6.7131-18.008 18.5409 0 10.9755 6.5 18.0615 17.742 18.0615 3.623 0 7.299-.7459 9.697-1.8647l1.278 4.5819zM345.832 9.4836v18.7541h22.324V9.4836h6.02v44.9139h-6.02V33.2992h-22.324v21.0451h-5.967V9.4836h5.967zM399.057 54.3975V9.4836h6.5l14.812 22.75c3.41 5.2746 6.074 10.0164 8.258 14.5984l.16-.0533c-.533-6.0205-.693-11.4549-.693-18.4344V9.4836h5.595v44.9139h-6.021l-14.652-22.8032c-3.196-5.0082-6.286-10.123-8.631-14.9714l-.213.0533c.32 5.6476.48 11.082.48 18.541v19.1803h-5.595zM450.045 9.4836v44.9139h-5.967V9.4836h5.967zM495.598 52.373c-2.664.959-7.938 2.4508-14.172 2.4508-6.979 0-12.733-1.7582-17.262-5.914-3.996-3.7295-6.447-9.75-6.447-16.7295.054-13.3729 9.537-23.1762 24.988-23.1762 5.328 0 9.537 1.1188 11.508 2.0779l-1.438 4.7418c-2.451-1.0656-5.541-1.9181-10.177-1.9181-11.241-.0532-18.541 6.7664-18.541 18.0082 0 11.4017 7.033 18.1148 17.795 18.1148 3.89 0 6.554-.5328 7.939-1.2254v-13.373h-9.377v-4.6885h15.184V52.373zM510.676 9.4836v18.7541H533V9.4836h6.021v44.9139H533V33.2992h-22.324v21.0451h-5.967V9.4836h5.967zM558.148 14.3852h-14.013V9.43033h34.152v4.95487h-14.119v39.9591h-6.02V14.3852zM595.229 36.9754c-.053-3.9426 3.197-6.9795 7.193-6.9795 3.943 0 7.193 3.0902 7.193 6.9262 0 3.9427-3.144 6.9795-7.193 6.9795-3.996 0-7.193-2.9836-7.193-6.9262z" stroke="#fff" stroke-width="5" stroke-miterlimit="10"/></svg>