<svg width="792" height="65" fill="none" xmlns="http://www.w3.org/2000/svg"><path d="M101.182 40.007c-1.3857 0-2.6484-.3357-3.7939-1.007-1.1455-.6713-2.0512-1.5771-2.7225-2.7225-.6713-1.1455-1.007-2.4082-1.007-3.7935 0-1.3852.3357-2.6373 1.007-3.7615.6713-1.1241 1.577-2.0192 2.7225-2.6905 1.1455-.6713 2.4082-1.007 3.7939-1.007 1.385 0 2.637.3357 3.761 1.007 1.124.6713 2.019 1.5664 2.691 2.6905.671 1.1242 1.007 2.3763 1.007 3.7615 0 1.3853-.336 2.648-1.007 3.7935-.672 1.1454-1.567 2.0512-2.691 2.7225-1.124.6713-2.381 1.007-3.761 1.007zM139.047 54.1365v-43.241h4.667v38.707h22.111v4.5393h-26.778v-.0053zM195.448 10.8902h-4.673l-17.246 43.2463h5.061l5.195-13.4849h18.658l5.189 13.4849h4.993l-17.177-43.2463zm-9.937 25.286l7.608-19.7397 7.598 19.7397h-15.206zM233.696 54.7865c-5.36 0-9.521-1.5771-12.483-4.7312-2.962-3.1541-4.443-7.6721-4.443-13.5487V10.8955h4.667v25.8668c0 4.6246 1.039 8.0504 3.111 10.2774 2.073 2.2271 5.12 3.3406 9.143 3.3406 4.023 0 7.086-1.1135 9.207-3.3406 2.115-2.227 3.175-5.6528 3.175-10.2774V10.8955h4.539v25.6111c0 3.9319-.671 7.2618-2.008 9.9844-1.343 2.7225-3.266 4.7897-5.77 6.191-2.504 1.4012-5.552 2.1045-9.138 2.1045zM295.292 10.8902v43.2463h-5.248l-25.872-36.4746v36.4746h-4.667V10.8902h5.317l25.803 36.416v-36.416h4.667zM324.403 54.6586c-6.654 0-11.662-1.8594-15.008-5.5783-3.351-3.7188-5.024-9.2492-5.024-16.5963 0-7.3471 1.673-12.8774 5.024-16.5963 3.351-3.7188 8.354-5.5783 15.008-5.5783 2.291 0 4.54.2824 6.745.8418 2.206.5648 4.343 1.3427 6.42 2.3336v4.4754c-1.987-1.0815-4.043-1.8913-6.159-2.4295-2.12-.5381-4.278-.8098-6.484-.8098-3.628 0-6.601.6287-8.913 1.8807-2.312 1.2521-4.017 3.1861-5.12 5.8021-1.103 2.616-1.652 5.9779-1.652 10.0803 0 4.1078.549 7.4697 1.652 10.0803 1.103 2.616 2.808 4.55 5.12 5.8021 2.312 1.252 5.285 1.8807 8.913 1.8807 2.206 0 4.364-.261 6.484-.7778 2.116-.5168 4.172-1.316 6.159-2.3976v4.4754c-1.385.65-2.797 1.2095-4.246 1.6836-1.449.4742-2.92.8312-4.406 1.0709-1.497.2345-3 .357-4.513.357zM346.642 54.1365v-43.241h4.667v19.452h23.016v-19.452h4.668v43.2463h-4.668V34.7537h-23.016v19.3881h-4.667v-.0053zM444.605 10.8902v43.2463h-5.248l-25.872-36.4746v36.4746h-4.667V10.8902h5.317l25.803 36.416v-36.416h4.667zM453.498 54.1365v-43.241h4.667v43.2463h-4.667v-.0053zM486.003 54.7865c-4.412 0-8.104-.8312-11.087-2.4935-2.984-1.6623-5.222-4.1504-6.713-7.459-1.492-3.3086-2.238-7.4217-2.238-12.35 0-4.9283.746-9.036 2.238-12.318 1.491-3.282 3.729-5.7488 6.713-7.3898 2.983-1.641 6.675-2.4614 11.087-2.4614 2.376 0 4.71.2397 7.001.7139 2.291.4742 4.496 1.2094 6.612 2.2057v4.8644c-2.03-.9058-4.151-1.6943-6.357-2.3656-2.205-.6713-4.454-1.007-6.745-1.007-3.628 0-6.622.6394-8.977 1.9127-2.355 1.2734-4.097 3.2181-5.221 5.8341-1.125 2.6159-1.684 5.9565-1.684 10.0163 0 4.0652.559 7.4111 1.684 10.0484 1.124 2.6373 2.861 4.5926 5.221 5.866 2.355 1.2734 5.349 1.9127 8.977 1.9127 1.727 0 3.416-.1279 5.057-.3889 1.641-.2611 3.26-.65 4.864-1.1668V36.4373h-10.437V31.898h15.104v19.5159c-2.376 1.1242-4.822 1.966-7.326 2.5308-2.498.5594-5.093.8418-7.773.8418zM510 54.1365v-43.241h4.667v19.452h23.016v-19.452h4.667v43.2463h-4.667V34.7537h-23.016v19.3881H510v-.0053zM566.059 54.1365V15.3016h-15.301v-4.4061h35.206v4.4061h-15.237v38.8349h-4.668zM624.213 40.007c-1.385 0-2.648-.3357-3.793-1.007-1.146-.6713-2.052-1.5771-2.723-2.7225-.671-1.1455-1.007-2.4082-1.007-3.7935 0-1.3852.336-2.6373 1.007-3.7615.671-1.1241 1.577-2.0192 2.723-2.6905 1.145-.6713 2.408-1.007 3.793-1.007 1.385 0 2.637.3357 3.762 1.007 1.124.6713 2.019 1.5664 2.69 2.6905.671 1.1242 1.007 2.3763 1.007 3.7615 0 1.3853-.336 2.648-1.007 3.7935-.671 1.1454-1.566 2.0512-2.69 2.7225-1.125.6713-2.377 1.007-3.762 1.007z" stroke="#fff" stroke-width="2" stroke-miterlimit="10"/><path d="M692.959 48.5103h-6.804c-.288 0-.522-.2345-.522-.5222V29.8094l-12.782 18.4771c-.106.1545-.293.2397-.474.2238l-.048.0053h-6.809c-.288 0-.522-.2344-.522-.5221v-30.939c0-.2877.234-.5221.522-.5221h6.809c.288 0 .522.2344.522.5221v18.0988l12.734-18.4078c.122-.1812.346-.2611.554-.2131h6.825c.288 0 .522.2344.522.5221v30.9336c-.005.2877-.24.5222-.527.5222zm-6.756-.5701h6.702V17.1078h-6.883L672.27 36.9861V17.1078h-6.702v30.8324l6.83-.0107 13.805-19.9582v19.9689zM708.617 36.8209h-13.511c-.288 0-.522-.2344-.522-.5221v-6.5213c0-.2877.234-.5222.522-.5222h13.511c.288 0 .522.2345.522.5222v6.5213c.006.2877-.229.5221-.522.5221zm-13.458-.5754h13.41v-6.4148h-13.41v6.4148zM712.171 24.0979h-17.065c-.288 0-.522-.2344-.522-.5221v-6.5213c0-.2877.234-.5221.522-.5221h17.065c.288 0 .522.2344.522.5221v6.5213c0 .2877-.234.5221-.522.5221zm-17.012-.5754h16.964v-6.4147h-16.964v6.4147z" fill="#fff"/><path d="M715.629 59.5656h-54.1V5.46639h54.1V59.5656zm-53.529-.5701h52.953V6.03647H662.1V58.9955zM41.1738 48.4783h-6.809c-.2877 0-.5222-.2344-.5222-.5222V29.7775l-12.7762 18.477c-.1065.1545-.293.2398-.4742.2238l-.0479.0053h-6.809c-.2877 0-.5222-.2344-.5222-.5221v-30.939c0-.2877.2345-.5221.5222-.5221h6.809c.2877 0 .5221.2344.5221.5221v18.0988L33.8 16.7135c.1226-.1811.3463-.261.5541-.2131h6.825c.2877 0 .5221.2344.5221.5221v30.9336c-.0053.2878-.2397.5222-.5274.5222zm-6.7557-.5701h6.7024V17.0758h-6.8836L20.491 36.9541V17.0758h-6.7078v30.8324l6.8303-.0107 13.8046-19.9582v19.9689zM56.8377 36.7889H43.3263c-.2877 0-.5222-.2344-.5222-.5221v-6.5213c0-.2877.2345-.5221.5222-.5221h13.5114c.2878 0 .5222.2344.5222.5221v6.5213c0 .2877-.2344.5221-.5222.5221zm-13.4635-.5754h13.4103v-6.4147H43.3742v6.4147zM60.3914 24.066H43.3263c-.2877 0-.5222-.2344-.5222-.5222v-6.5213c0-.2877.2345-.5221.5222-.5221h17.0651c.2877 0 .5222.2344.5222.5221v6.5213c0 .2878-.2345.5222-.5222.5222zm-17.0172-.5754h16.964v-6.4148h-16.964v6.4148z" fill="#fff"/><path d="M63.8439 59.5336H9.74469V5.43443H63.8439V59.5336zm-53.5238-.5701h52.9537V6.00451H10.3201V58.9635z" fill="#fff"/></svg>