<svg width="70" height="70" viewBox="0 0 70 70" fill="none" xmlns="http://www.w3.org/2000/svg">
<rect width="70" height="70" fill="black"/>
<path d="M39.9459 16.2947V52.8098C39.9459 52.964 39.8214 53.0885 39.6672 53.0885H31.633C31.4787 53.0885 31.3542 52.964 31.3542 52.8098V30.2659L15.6525 52.9668C15.5883 53.0601 15.4773 53.1014 15.3724 53.0824C15.3535 53.0865 15.3332 53.0885 15.3129 53.0885H7.27872C7.12448 53.0885 7 52.964 7 52.8098V16.2947C7 16.1404 7.12448 16.016 7.27872 16.016H15.3129C15.4672 16.016 15.5916 16.1404 15.5916 16.2947V38.7405L31.2372 16.1201C31.3137 16.0099 31.455 15.9713 31.5741 16.022C31.5931 16.018 31.6127 16.016 31.633 16.016H39.6672C39.8214 16.016 39.9459 16.1404 39.9459 16.2947Z" fill="white"/>
<path d="M57.8057 31.3131V39.0091C57.8057 39.1633 57.6812 39.2878 57.5269 39.2878H41.5776C41.4234 39.2878 41.2989 39.1633 41.2989 39.0091V31.3131C41.2989 31.1589 41.4234 31.0344 41.5776 31.0344H57.5269C57.6812 31.0344 57.8057 31.1589 57.8057 31.3131Z" fill="white"/>
<path d="M62 16.2947V23.9906C62 24.1449 61.8755 24.2693 61.7213 24.2693H41.5776C41.4234 24.2693 41.2989 24.1449 41.2989 23.9906V16.2947C41.2989 16.1404 41.4234 16.016 41.5776 16.016H61.7213C61.8755 16.016 62 16.1404 62 16.2947Z" fill="white"/>
</svg>
